<svg fill="none" height="313" viewBox="0 0 567 313" width="567" xmlns="http://www.w3.org/2000/svg" xmlns:xlink="http://www.w3.org/1999/xlink"><clipPath id="a"><path d="m0 0h567v313h-567z"/></clipPath><clipPath id="b"><path d="m0 0h28.4545v28.4545h-28.4545z"/></clipPath><clipPath id="c"><path d="m28.4546 0h28.4545v28.4545h-28.4545z"/></clipPath><clipPath id="d"><path d="m28.4546 28.4546h28.4545v28.4545h-28.4545z"/></clipPath><clipPath id="e"><path d="m85.3635 56.9091h28.4545v28.4545h-28.4545z"/></clipPath><clipPath id="f"><path d="m256.091 170.727h28.4545v28.4545h-28.4545z"/></clipPath><clipPath id="g"><path d="m256.091 227.636h28.4545v28.4545h-28.4545z"/></clipPath><clipPath id="h"><path d="m313 284.545h28.4545v28.4545h-28.4545z"/></clipPath><clipPath id="i"><path d="m341.455 256.091h28.4545v28.4545h-28.4545z"/></clipPath><clipPath id="j"><path d="m113.818 28.4546h28.4545v28.4545h-28.4545z"/></clipPath><clipPath id="k"><path d="m227.636 85.3635h28.4545v28.4545h-28.4545z"/></clipPath><clipPath id="l"><path d="m284.545 56.9091h28.4545v28.4545h-28.4545z"/></clipPath><clipPath id="m"><path d="m170.727 56.9091h28.4545v28.4545h-28.4545z"/></clipPath><clipPath id="n"><path d="m0 28.4546h28.4545v28.4545h-28.4545z"/></clipPath><clipPath id="o"><path d="m284.545 170.727h28.4545v28.4545h-28.4545z"/></clipPath><clipPath id="p"><path d="m284.545 256.091h28.4545v28.4545h-28.4545z"/></clipPath><clipPath id="q"><path d="m56.9092 28.4546h28.4545v28.4545h-28.4545z"/></clipPath><clipPath id="r"><path d="m85.3635 28.4546h28.4545v28.4545h-28.4545z"/></clipPath><clipPath id="s"><path d="m227.636 56.9091h28.4545v28.4545h-28.4545z"/></clipPath><clipPath id="t"><path d="m142.273 56.9091h28.4545v28.4545h-28.4545z"/></clipPath><clipPath id="u"><path d="m56.9092 0h28.4545v28.4545h-28.4545z"/></clipPath><clipPath id="v"><path d="m113.818 56.9091h28.4545v28.4545h-28.4545z"/></clipPath><clipPath id="w"><path d="m142.273 85.3635h28.4545v28.4545h-28.4545z"/></clipPath><clipPath id="x"><path d="m369.909 113.818h28.4545v28.4545h-28.4545z"/></clipPath><clipPath id="y"><path d="m483.727 113.818h28.4545v28.4545h-28.4545z"/></clipPath><clipPath id="z"><path d="m455.273 142.273h28.4545v28.4545h-28.4545z"/></clipPath><clipPath id="A"><path d="m540.636 142.273h28.4545v28.4545h-28.4545z"/></clipPath><clipPath id="B"><path d="m540.636 113.818h28.4545v28.4545h-28.4545z"/></clipPath><clipPath id="C"><path d="m284.545 284.545h28.4545v28.4545h-28.4545z"/></clipPath><clipPath id="D"><path d="m398.364 227.636h28.4545v28.4545h-28.4545z"/></clipPath><clipPath id="E"><path d="m284.545 28.4546h28.4545v28.4545h-28.4545z"/></clipPath><clipPath id="F"><path d="m341.455 0h28.4545v28.4545h-28.4545z"/></clipPath><clipPath id="G"><path d="m227.636 142.273h28.4545v28.4545h-28.4545z"/></clipPath><clipPath id="H"><path d="m398.364 142.273h28.4545v28.4545h-28.4545z"/></clipPath><clipPath id="I"><path d="m284.545 113.818h28.4545v28.4545h-28.4545z"/></clipPath><clipPath id="J"><path d="m369.909 199.182h28.4545v28.4545h-28.4545z"/></clipPath><clipPath id="K"><path d="m540.636 227.636h28.4545v28.4545h-28.4545z"/></clipPath><clipPath id="L"><path d="m426.818 113.818h28.4545v28.4545h-28.4545z"/></clipPath><clipPath id="M"><path d="m540.636 56.9091h28.4545v28.4545h-28.4545z"/></clipPath><clipPath id="N"><path d="m256.091 56.9091h28.4545v28.4545h-28.4545z"/></clipPath><clipPath id="O"><path d="m398.364 85.3635h28.4545v28.4545h-28.4545z"/></clipPath><clipPath id="P"><path d="m512.182 28.4546h28.4545v28.4545h-28.4545z"/></clipPath><clipPath id="Q"><path d="m483.727 0h28.4545v28.4545h-28.4545z"/></clipPath><clipPath id="R"><path d="m85.3635 85.3635h28.4545v28.4545h-28.4545z"/></clipPath><clipPath id="S"><path d="m284.545 227.636h28.4545v28.4545h-28.4545z"/></clipPath><clipPath id="T"><path d="m227.636 170.727h28.4545v28.4545h-28.4545z"/></clipPath><clipPath id="U"><path d="m256.091 85.3635h28.4545v28.4545h-28.4545z"/></clipPath><clipPath id="V"><path d="m28.4546 56.9091h28.4545v28.4545h-28.4545z"/></clipPath><clipPath id="W"><path d="m142.273 28.4546h28.4545v28.4545h-28.4545z"/></clipPath><clipPath id="X"><path d="m85.3635 0h28.4545v28.4545h-28.4545z"/></clipPath><clipPath id="Y"><path d="m113.818 85.3635h28.4545v28.4545h-28.4545z"/></clipPath><clipPath id="Z"><path d="m284.545 199.182h28.4545v28.4545h-28.4545z"/></clipPath><clipPath id="aa"><path d="m483.727 199.182h28.4545v28.4545h-28.4545z"/></clipPath><clipPath id="ab"><path d="m455.273 256.091h28.4545v28.4545h-28.4545z"/></clipPath><clipPath id="ac"><path d="m540.636 170.727h28.4545v28.4545h-28.4545z"/></clipPath><clipPath id="ad"><path d="m426.818 284.545h28.4545v28.4545h-28.4545z"/></clipPath><clipPath id="ae"><path d="m113.818 113.818h28.4545v28.4545h-28.4545z"/></clipPath><clipPath id="af"><path d="m313 85.3635h28.4545v28.4545h-28.4545z"/></clipPath><clipPath id="ag"><path d="m426.818 0h28.4545v28.4545h-28.4545z"/></clipPath><clipPath id="ah"><path d="m341.455 28.4546h28.4545v28.4545h-28.4545z"/></clipPath><clipPath id="ai"><path d="m398.364 56.9091h28.4545v28.4545h-28.4545z"/></clipPath><clipPath id="aj"><path d="m483.727 28.4546h28.4545v28.4545h-28.4545z"/></clipPath><clipPath id="ak"><path d="m455.273 85.3635h28.4545v28.4545h-28.4545z"/></clipPath><clipPath id="al"><path d="m512.182 85.3635h28.4545v28.4545h-28.4545z"/></clipPath><clipPath id="am"><path d="m199.182 199.182h28.4545v28.4545h-28.4545z"/></clipPath><clipPath id="an"><path d="m256.091 113.818h28.4545v28.4545h-28.4545z"/></clipPath><clipPath id="ao"><path d="m199.182 142.273h28.4545v28.4545h-28.4545z"/></clipPath><clipPath id="ap"><path d="m455.273 170.727h28.4545v28.4545h-28.4545z"/></clipPath><clipPath id="aq"><path d="m142.273 170.727h28.4545v28.4545h-28.4545z"/></clipPath><clipPath id="ar"><path d="m85.3635 256.091h28.4545v28.4545h-28.4545z"/></clipPath><clipPath id="as"><path d="m313 199.182h28.4545v28.4545h-28.4545z"/></clipPath><clipPath id="at"><path d="m483.727 227.636h28.4545v28.4545h-28.4545z"/></clipPath><clipPath id="au"><path d="m540.636 284.545h28.4545v28.4545h-28.4545z"/></clipPath><clipPath id="av"><path d="m170.727 0h28.4545v28.4545h-28.4545z"/></clipPath><clipPath id="aw"><path d="m56.9092 56.9091h28.4545v28.4545h-28.4545z"/></clipPath><clipPath id="ax"><path d="m284.545 0h28.4545v28.4545h-28.4545z"/></clipPath><clipPath id="ay"><path d="m142.273 113.818h28.4545v28.4545h-28.4545z"/></clipPath><clipPath id="az"><path d="m170.727 227.636h28.4545v28.4545h-28.4545z"/></clipPath><clipPath id="aA"><path d="m341.455 284.545h28.4545v28.4545h-28.4545z"/></clipPath><clipPath id="aB"><path d="m398.364 256.091h28.4545v28.4545h-28.4545z"/></clipPath><clipPath id="aC"><path d="m142.273 256.091h28.4545v28.4545h-28.4545z"/></clipPath><clipPath id="aD"><path d="m284.545 85.3635h28.4545v28.4545h-28.4545z"/></clipPath><clipPath id="aE"><path d="m56.9092 85.3635h28.4545v28.4545h-28.4545z"/></clipPath><clipPath id="aF"><path d="m0 199.182h28.4545v28.4545h-28.4545z"/></clipPath><clipPath id="aG"><path d="m113.818 284.545h28.4545v28.4545h-28.4545z"/></clipPath><clipPath id="aH"><path d="m142.273 227.636h28.4545v28.4545h-28.4545z"/></clipPath><clipPath id="aI"><path d="m142.273 0h28.4545v28.4545h-28.4545z"/></clipPath><clipPath id="aJ"><path d="m56.9092 113.818h28.4545v28.4545h-28.4545z"/></clipPath><clipPath id="aK"><path d="m170.727 170.727h28.4545v28.4545h-28.4545z"/></clipPath><clipPath id="aL"><path d="m142.273 199.182h28.4545v28.4545h-28.4545z"/></clipPath><clipPath id="aM"><path d="m256.091 256.091h28.4545v28.4545h-28.4545z"/></clipPath><clipPath id="aN"><path d="m28.4546 199.182h28.4545v28.4545h-28.4545z"/></clipPath><clipPath id="aO"><path d="m341.455 113.818h28.4545v28.4545h-28.4545z"/></clipPath><clipPath id="aP"><path d="m398.364 170.727h28.4545v28.4545h-28.4545z"/></clipPath><clipPath id="aQ"><path d="m540.636 199.182h28.4545v28.4545h-28.4545z"/></clipPath><clipPath id="aR"><path d="m170.727 85.3635h28.4545v28.4545h-28.4545z"/></clipPath><clipPath id="aS"><path d="m199.182 0h28.4545v28.4545h-28.4545z"/></clipPath><clipPath id="aT"><path d="m227.636 28.4546h28.4545v28.4545h-28.4545z"/></clipPath><clipPath id="aU"><path d="m426.818 28.4546h28.4545v28.4545h-28.4545z"/></clipPath><clipPath id="aV"><path d="m455.273 56.9091h28.4545v28.4545h-28.4545z"/></clipPath><clipPath id="aW"><path d="m455.273 0h28.4545v28.4545h-28.4545z"/></clipPath><clipPath id="aX"><path d="m512.182 56.9091h28.4545v28.4545h-28.4545z"/></clipPath><clipPath id="aY"><path d="m483.727 85.3635h28.4545v28.4545h-28.4545z"/></clipPath><clipPath id="aZ"><path d="m256.091 28.4546h28.4545v28.4545h-28.4545z"/></clipPath><clipPath id="a0"><path d="m256.091 142.273h28.4545v28.4545h-28.4545z"/></clipPath><clipPath id="a1"><path d="m199.182 28.4546h28.4545v28.4545h-28.4545z"/></clipPath><clipPath id="a2"><path d="m313 28.4546h28.4545v28.4545h-28.4545z"/></clipPath><clipPath id="a3"><path d="m369.909 28.4546h28.4545v28.4545h-28.4545z"/></clipPath><clipPath id="a4"><path d="m341.455 56.9091h28.4545v28.4545h-28.4545z"/></clipPath><clipPath id="a5"><path d="m256.091 0h28.4545v28.4545h-28.4545z"/></clipPath><clipPath id="a6"><path d="m113.818 0h28.4545v28.4545h-28.4545z"/></clipPath><clipPath id="a7"><path d="m199.182 113.818h28.4545v28.4545h-28.4545z"/></clipPath><clipPath id="a8"><path d="m28.4546 85.3635h28.4545v28.4545h-28.4545z"/></clipPath><clipPath id="a9"><path d="m199.182 85.3635h28.4545v28.4545h-28.4545z"/></clipPath><clipPath id="ba"><path d="m369.909 85.3635h28.4545v28.4545h-28.4545z"/></clipPath><clipPath id="bb"><path d="m170.727 28.4546h28.4545v28.4545h-28.4545z"/></clipPath><clipPath id="bc"><path d="m227.636 113.818h28.4545v28.4545h-28.4545z"/></clipPath><clipPath id="bd"><path d="m170.727 113.818h28.4545v28.4545h-28.4545z"/></clipPath><clipPath id="be"><path d="m113.818 199.182h28.4545v28.4545h-28.4545z"/></clipPath><clipPath id="bf"><path d="m142.273 284.545h28.4545v28.4545h-28.4545z"/></clipPath><clipPath id="bg"><path d="m85.3635 170.727h28.4545v28.4545h-28.4545z"/></clipPath><clipPath id="bh"><path d="m56.9092 142.273h28.4545v28.4545h-28.4545z"/></clipPath><clipPath id="bi"><path d="m28.4546 227.636h28.4545v28.4545h-28.4545z"/></clipPath><clipPath id="bj"><path d="m313 142.273h28.4545v28.4545h-28.4545z"/></clipPath><clipPath id="bk"><path d="m369.909 170.727h28.4545v28.4545h-28.4545z"/></clipPath><clipPath id="bl"><path d="m426.818 199.182h28.4545v28.4545h-28.4545z"/></clipPath><clipPath id="bm"><path d="m512.182 199.182h28.4545v28.4545h-28.4545z"/></clipPath><clipPath id="bn"><path d="m85.3635 113.818h28.4545v28.4545h-28.4545z"/></clipPath><clipPath id="bo"><path d="m313 113.818h28.4545v28.4545h-28.4545z"/></clipPath><clipPath id="bp"><path d="m313 0h28.4545v28.4545h-28.4545z"/></clipPath><clipPath id="bq"><path d="m199.182 56.9091h28.4545v28.4545h-28.4545z"/></clipPath><clipPath id="br"><path d="m341.455 142.273h28.4545v28.4545h-28.4545z"/></clipPath><clipPath id="bs"><path d="m512.182 170.727h28.4545v28.4545h-28.4545z"/></clipPath><clipPath id="bt"><path d="m0 56.9091h28.4545v28.4545h-28.4545z"/></clipPath><clipPath id="bu"><path d="m85.3635 142.273h28.4545v28.4545h-28.4545z"/></clipPath><clipPath id="bv"><path d="m85.3635 227.636h28.4545v28.4545h-28.4545z"/></clipPath><clipPath id="bw"><path d="m28.4546 113.818h28.4545v28.4545h-28.4545z"/></clipPath><clipPath id="bx"><path d="m113.818 142.273h28.4545v28.4545h-28.4545z"/></clipPath><clipPath id="by"><path d="m227.636 0h28.4545v28.4545h-28.4545z"/></clipPath><clipPath id="bz"><path d="m142.273 142.273h28.4545v28.4545h-28.4545z"/></clipPath><clipPath id="bA"><path d="m313 56.9091h28.4545v28.4545h-28.4545z"/></clipPath><clipPath id="bB"><path d="m398.364 0h28.4545v28.4545h-28.4545z"/></clipPath><clipPath id="bC"><path d="m369.909 56.9091h28.4545v28.4545h-28.4545z"/></clipPath><clipPath id="bD"><path d="m28.4546 142.273h28.4545v28.4545h-28.4545z"/></clipPath><clipPath id="bE"><path d="m227.636 227.636h28.4545v28.4545h-28.4545z"/></clipPath><clipPath id="bF"><path d="m170.727 256.091h28.4545v28.4545h-28.4545z"/></clipPath><clipPath id="bG"><path d="m56.9092 199.182h28.4545v28.4545h-28.4545z"/></clipPath><clipPath id="bH"><path d="m341.455 199.182h28.4545v28.4545h-28.4545z"/></clipPath><clipPath id="bI"><path d="m227.636 256.091h28.4545v28.4545h-28.4545z"/></clipPath><clipPath id="bJ"><path d="m28.4546 170.727h28.4545v28.4545h-28.4545z"/></clipPath><clipPath id="bK"><path d="m56.9092 227.636h28.4545v28.4545h-28.4545z"/></clipPath><clipPath id="bL"><path d="m199.182 170.727h28.4545v28.4545h-28.4545z"/></clipPath><clipPath id="bM"><path d="m455.273 199.182h28.4545v28.4545h-28.4545z"/></clipPath><clipPath id="bN"><path d="m426.818 256.091h28.4545v28.4545h-28.4545z"/></clipPath><clipPath id="bO"><path d="m483.727 142.273h28.4545v28.4545h-28.4545z"/></clipPath><clipPath id="bP"><path d="m369.909 227.636h28.4545v28.4545h-28.4545z"/></clipPath><clipPath id="bQ"><path d="m455.273 284.545h28.4545v28.4545h-28.4545z"/></clipPath><clipPath id="bR"><path d="m483.727 256.091h28.4545v28.4545h-28.4545z"/></clipPath><clipPath id="bS"><path d="m0 113.818h28.4545v28.4545h-28.4545z"/></clipPath><clipPath id="bT"><path d="m0 142.273h28.4545v28.4545h-28.4545z"/></clipPath><clipPath id="bU"><path d="m0 85.3635h28.4545v28.4545h-28.4545z"/></clipPath><clipPath id="bV"><path d="m56.9092 170.727h28.4545v28.4545h-28.4545z"/></clipPath><clipPath id="bW"><path d="m284.545 142.273h28.4545v28.4545h-28.4545z"/></clipPath><clipPath id="bX"><path d="m369.909 284.545h28.4545v28.4545h-28.4545z"/></clipPath><clipPath id="bY"><path d="m369.909 142.273h28.4545v28.4545h-28.4545z"/></clipPath><clipPath id="bZ"><path d="m170.727 142.273h28.4545v28.4545h-28.4545z"/></clipPath><clipPath id="b0"><path d="m256.091 199.182h28.4545v28.4545h-28.4545z"/></clipPath><clipPath id="b1"><path d="m113.818 170.727h28.4545v28.4545h-28.4545z"/></clipPath><clipPath id="b2"><path d="m113.818 227.636h28.4545v28.4545h-28.4545z"/></clipPath><clipPath id="b3"><path d="m398.364 199.182h28.4545v28.4545h-28.4545z"/></clipPath><clipPath id="b4"><path d="m512.182 256.091h28.4545v28.4545h-28.4545z"/></clipPath><clipPath id="b5"><path d="m170.727 199.182h28.4545v28.4545h-28.4545z"/></clipPath><clipPath id="b6"><path d="m0 170.727h28.4545v28.4545h-28.4545z"/></clipPath><clipPath id="b7"><path d="m341.455 170.727h28.4545v28.4545h-28.4545z"/></clipPath><clipPath id="b8"><path d="m483.727 284.545h28.4545v28.4545h-28.4545z"/></clipPath><clipPath id="b9"><path d="m313 227.636h28.4545v28.4545h-28.4545z"/></clipPath><clipPath id="ca"><path d="m199.182 227.636h28.4545v28.4545h-28.4545z"/></clipPath><clipPath id="cb"><path d="m369.909 256.091h28.4545v28.4545h-28.4545z"/></clipPath><clipPath id="cc"><path d="m540.636 256.091h28.4545v28.4545h-28.4545z"/></clipPath><clipPath id="cd"><path d="m398.364 284.545h28.4545v28.4545h-28.4545z"/></clipPath><clipPath id="ce"><path d="m227.636 284.545h28.4545v28.4545h-28.4545z"/></clipPath><clipPath id="cf"><path d="m426.818 227.636h28.4545v28.4545h-28.4545z"/></clipPath><clipPath id="cg"><path d="m483.727 170.727h28.4545v28.4545h-28.4545z"/></clipPath><clipPath id="ch"><path d="m512.182 227.636h28.4545v28.4545h-28.4545z"/></clipPath><clipPath id="ci"><path d="m483.727 56.9091h28.4545v28.4545h-28.4545z"/></clipPath><clipPath id="cj"><path d="m455.273 28.4546h28.4545v28.4545h-28.4545z"/></clipPath><clipPath id="ck"><path d="m426.818 85.3635h28.4545v28.4545h-28.4545z"/></clipPath><clipPath id="cl"><path d="m540.636 0h28.4545v28.4545h-28.4545z"/></clipPath><clipPath id="cm"><path d="m398.364 28.4546h28.4545v28.4545h-28.4545z"/></clipPath><clipPath id="cn"><path d="m85.3635 199.182h28.4545v28.4545h-28.4545z"/></clipPath><clipPath id="co"><path d="m313 170.727h28.4545v28.4545h-28.4545z"/></clipPath><clipPath id="cp"><path d="m455.273 227.636h28.4545v28.4545h-28.4545z"/></clipPath><clipPath id="cq"><path d="m512.182 142.273h28.4545v28.4545h-28.4545z"/></clipPath><clipPath id="cr"><path d="m256.091 284.545h28.4545v28.4545h-28.4545z"/></clipPath><clipPath id="cs"><path d="m398.364 113.818h28.4545v28.4545h-28.4545z"/></clipPath><clipPath id="ct"><path d="m540.636 28.4546h28.4545v28.4545h-28.4545z"/></clipPath><clipPath id="cu"><path d="m455.273 113.818h28.4545v28.4545h-28.4545z"/></clipPath><clipPath id="cv"><path d="m426.818 56.9091h28.4545v28.4545h-28.4545z"/></clipPath><clipPath id="cw"><path d="m512.182 0h28.4545v28.4545h-28.4545z"/></clipPath><clipPath id="cx"><path d="m426.818 170.727h28.4545v28.4545h-28.4545z"/></clipPath><clipPath id="cy"><path d="m512.182 113.818h28.4545v28.4545h-28.4545z"/></clipPath><clipPath id="cz"><path d="m341.455 85.3635h28.4545v28.4545h-28.4545z"/></clipPath><clipPath id="cA"><path d="m369.909 0h28.4545v28.4545h-28.4545z"/></clipPath><clipPath id="cB"><path d="m227.636 199.182h28.4545v28.4545h-28.4545z"/></clipPath><clipPath id="cC"><path d="m170.727 284.545h28.4545v28.4545h-28.4545z"/></clipPath><clipPath id="cD"><path d="m56.9092 256.091h28.4545v28.4545h-28.4545z"/></clipPath><clipPath id="cE"><path d="m28.4546 256.091h28.4545v28.4545h-28.4545z"/></clipPath><clipPath id="cF"><path d="m0 227.636h28.4545v28.4545h-28.4545z"/></clipPath><clipPath id="cG"><path d="m0 256.091h28.4545v28.4545h-28.4545z"/></clipPath><clipPath id="cH"><path d="m113.818 256.091h28.4545v28.4545h-28.4545z"/></clipPath><clipPath id="cI"><path d="m426.818 142.273h28.4545v28.4545h-28.4545z"/></clipPath><clipPath id="cJ"><path d="m540.636 85.3635h28.4545v28.4545h-28.4545z"/></clipPath><clipPath id="cK"><path d="m341.455 227.636h28.4545v28.4545h-28.4545z"/></clipPath><clipPath id="cL"><path d="m512.182 284.545h28.4545v28.4545h-28.4545z"/></clipPath><clipPath id="cM"><path d="m313 256.091h28.4545v28.4545h-28.4545z"/></clipPath><clipPath id="cN"><path d="m199.182 256.091h28.4545v28.4545h-28.4545z"/></clipPath><clipPath id="cO"><path d="m85.3635 284.545h28.4545v28.4545h-28.4545z"/></clipPath><clipPath id="cP"><path d="m56.9092 284.545h28.4545v28.4545h-28.4545z"/></clipPath><clipPath id="cQ"><path d="m28.4546 284.545h28.4545v28.4545h-28.4545z"/></clipPath><clipPath id="cR"><path d="m0 284.545h28.4545v28.4545h-28.4545z"/></clipPath><clipPath id="cS"><path d="m199.182 284.545h28.4545v28.4545h-28.4545z"/></clipPath><g clip-path="url(#a)"><path d="m0 0h567v313h-567z" fill="#2563eb"/><g opacity=".4"><g stroke="#3770ee" stroke-width="2"><g clip-path="url(#b)"><path d="m28.4545 0h-28.4545v28.4545h28.4545z"/><ellipse cx="14.2272" cy="28.4546" rx="13.9427" ry="13.9427"/></g><g clip-path="url(#c)"><path d="m56.9091 0h-28.4545v28.4545h28.4545z"/><ellipse cx="56.909" cy="14.2273" rx="13.9427" ry="13.9427"/></g><g clip-path="url(#d)"><path d="m56.9091 28.4546h-28.4545v28.4545h28.4545z"/><circle cx="56.6246" cy="28.7391" r="27.8855" transform="matrix(0 1 -1 0 85.3637 -27.8855)"/><ellipse cx="28.7391" cy="56.6246" rx="27.8855" ry="27.8855" transform="matrix(0 1 -1 0 85.3637 27.8855)"/></g><g clip-path="url(#e)"><path d="m113.818 56.9091h-28.4545v28.4545h28.4545z"/><circle cx="113.533" cy="57.1936" r="27.8855" transform="matrix(0 1 -1 0 170.7266 -56.3394)"/><ellipse cx="85.648" cy="85.0791" rx="27.8855" ry="27.8855" transform="matrix(0 1 -1 0 170.7271 -.5689)"/></g><g clip-path="url(#f)"><path d="m284.545 170.727h-28.454v28.455h28.454z"/><circle cx="284.261" cy="171.012" r="27.8855" transform="matrix(0 1 -1 0 455.273 -113.249)"/><ellipse cx="256.375" cy="198.897" rx="27.8855" ry="27.8855" transform="matrix(0 1 -1 0 455.272 -57.478)"/></g><g clip-path="url(#g)"><path d="m284.545 227.636h-28.454v28.455h28.454z"/><circle cx="284.261" cy="227.921" r="27.8855" transform="matrix(0 1 -1 0 512.182 -56.34)"/><ellipse cx="256.375" cy="255.807" rx="27.8855" ry="27.8855" transform="matrix(0 1 -1 0 512.182 -.568)"/></g><g clip-path="url(#h)"><path d="m341.455 284.545h-28.455v28.455h28.455z"/><circle cx="341.17" cy="284.83" r="27.8855" transform="matrix(0 1 -1 0 626 -56.34)"/><ellipse cx="313.284" cy="312.716" rx="27.8855" ry="27.8855" transform="matrix(0 1 -1 0 626 -.568)"/></g><g clip-path="url(#i)"><path d="m369.909 256.091h-28.454v28.454h28.454z"/><circle cx="369.625" cy="256.375" r="27.8855" transform="matrix(0 1 -1 0 626 -113.25)"/><ellipse cx="341.739" cy="284.261" rx="27.8855" ry="27.8855" transform="matrix(0 1 -1 0 626 -57.478)"/></g><g clip-path="url(#j)"><path d="m142.273 28.4546h-28.455v28.4545h28.455z"/><circle cx="114.103" cy="28.7391" r="27.8855"/><circle cx="141.988" cy="56.6246" r="27.8855"/></g><g clip-path="url(#k)"><path d="m256.091 85.3635h-28.455v28.4545h28.455z"/><circle cx="227.921" cy="85.648" r="27.8855"/><circle cx="255.806" cy="113.533" r="27.8855"/></g><g clip-path="url(#l)"><path d="m313 56.9091h-28.455v28.4545h28.455z"/><circle cx="284.83" cy="57.1936" r="27.8855"/><circle cx="312.715" cy="85.0791" r="27.8855"/></g><g clip-path="url(#m)"><path d="m199.182 56.9091h-28.455v28.4545h28.455z"/><circle cx="171.012" cy="57.1936" r="27.8855"/><circle cx="198.897" cy="85.0791" r="27.8855"/></g><g clip-path="url(#n)"><path d="m28.4545 28.4546h-28.4545v28.4545h28.4545z"/><circle cx="14.2272" cy="28.4546" r="13.9427"/></g><g clip-path="url(#o)"><path d="m313 170.727h-28.455v28.455h28.455z"/><circle cx="298.773" cy="170.727" r="13.9427"/></g><g clip-path="url(#p)"><path d="m313 256.091h-28.455v28.454h28.455z"/><circle cx="298.773" cy="256.091" r="13.9427"/></g><g clip-path="url(#q)"><path d="m85.3637 28.4546h-28.4545v28.4545h28.4545z"/><circle cx="56.9093" cy="42.6819" r="13.9427"/></g><g clip-path="url(#r)"><path d="m113.818 28.4546h-28.4545v28.4545h28.4545z"/><circle cx="99.5907" cy="42.6819" r="13.9427"/></g><g clip-path="url(#s)"><path d="m256.091 56.9091h-28.455v28.4545h28.455z"/><circle cx="241.864" cy="71.1363" r="13.9427"/></g><g clip-path="url(#t)"><path d="m170.727 56.9091h-28.454v28.4545h28.454z"/><circle cx="156.5" cy="71.1363" r="13.9427"/></g><g clip-path="url(#u)"><path d="m85.3637 0h-28.4545v28.4545h28.4545z"/><ellipse cx="57.1938" cy="28.17" rx="27.8855" ry="27.8855"/></g><g clip-path="url(#v)"><path d="m142.273 56.9091h-28.455v28.4545h28.455z"/><circle cx="114.103" cy="57.1936" r="27.8855"/></g><g clip-path="url(#w)"><path d="m170.727 85.3635h-28.454v28.4545h28.454z"/><ellipse cx="170.443" cy="85.648" rx="27.8855" ry="27.8855"/><circle cx="170.443" cy="85.648" r="13.9427"/></g><g clip-path="url(#x)"><path d="m398.364 113.818h-28.455v28.455h28.455z"/><ellipse cx="398.079" cy="114.103" rx="27.8855" ry="27.8855"/><circle cx="398.079" cy="114.103" r="13.9427"/></g><g clip-path="url(#y)"><path d="m512.182 113.818h-28.455v28.455h28.455z"/><ellipse cx="511.897" cy="114.103" rx="27.8855" ry="27.8855"/><circle cx="511.897" cy="114.103" r="13.9427"/></g><g clip-path="url(#z)"><path d="m483.727 142.273h-28.454v28.454h28.454z"/><ellipse cx="483.443" cy="142.557" rx="27.8855" ry="27.8855"/><circle cx="483.443" cy="142.557" r="13.9427"/></g><g clip-path="url(#A)"><path d="m569.091 142.273h-28.455v28.454h28.455z"/><ellipse cx="568.806" cy="142.557" rx="27.8855" ry="27.8855"/><circle cx="568.806" cy="142.557" r="13.9427"/></g><g clip-path="url(#B)"><path d="m569.091 113.818h-28.455v28.455h28.455z"/><ellipse cx="568.806" cy="114.103" rx="27.8855" ry="27.8855"/><circle cx="568.806" cy="114.103" r="13.9427"/></g><g clip-path="url(#C)"><path d="m313 284.545h-28.455v28.455h28.455z"/><ellipse cx="312.715" cy="284.83" rx="27.8855" ry="27.8855"/><circle cx="312.715" cy="284.83" r="13.9427"/></g><g clip-path="url(#D)"><path d="m426.818 227.636h-28.454v28.455h28.454z"/><ellipse cx="426.534" cy="227.921" rx="27.8855" ry="27.8855"/><circle cx="426.534" cy="227.921" r="13.9427"/></g><g clip-path="url(#E)"><path d="m313 28.4546h-28.455v28.4545h28.455z"/><ellipse cx="312.715" cy="28.7391" rx="27.8855" ry="27.8855"/><circle cx="312.715" cy="28.7391" r="13.9427"/></g><g clip-path="url(#F)"><path d="m369.909 0h-28.454v28.4545h28.454z"/><ellipse cx="369.624" cy=".284504" rx="27.8855" ry="27.8855"/><circle cx="369.625" cy=".284525" r="13.9427"/></g><g clip-path="url(#G)"><path d="m256.091 142.273h-28.455v28.454h28.455z"/><ellipse cx="255.806" cy="142.557" rx="27.8855" ry="27.8855"/><circle cx="255.807" cy="142.557" r="13.9427"/></g><g clip-path="url(#H)"><path d="m426.818 142.273h-28.454v28.454h28.454z"/><ellipse cx="426.534" cy="142.557" rx="27.8855" ry="27.8855"/><circle cx="426.534" cy="142.557" r="13.9427"/></g><g clip-path="url(#I)"><path d="m313 113.818h-28.455v28.455h28.455z"/><ellipse cx="312.715" cy="114.103" rx="27.8855" ry="27.8855"/><circle cx="312.715" cy="114.103" r="13.9427"/></g><g clip-path="url(#J)"><path d="m398.364 199.182h-28.455v28.454h28.455z"/><ellipse cx="398.079" cy="199.467" rx="27.8855" ry="27.8855"/><circle cx="398.079" cy="199.466" r="13.9427"/></g><g clip-path="url(#K)"><path d="m569.091 227.636h-28.455v28.455h28.455z"/><ellipse cx="568.806" cy="227.921" rx="27.8855" ry="27.8855"/><circle cx="568.806" cy="227.921" r="13.9427"/></g><g clip-path="url(#L)"><path d="m455.273 113.818h-28.455v28.455h28.455z"/><ellipse cx="454.988" cy="114.103" rx="27.8855" ry="27.8855"/><circle cx="454.988" cy="114.103" r="13.9427"/></g><g clip-path="url(#M)"><path d="m569.091 56.9091h-28.455v28.4545h28.455z"/><ellipse cx="568.806" cy="57.1936" rx="27.8855" ry="27.8855"/><circle cx="568.806" cy="57.1936" r="13.9427"/></g><g clip-path="url(#N)"><path d="m284.545 56.9091h-28.454v28.4545h28.454z"/><circle cx="256.375" cy="57.1936" r="27.8855"/><circle cx="256.375" cy="57.1936" r="13.9427"/></g><g clip-path="url(#O)"><path d="m426.818 85.3635h-28.454v28.4545h28.454z"/><circle cx="398.648" cy="85.648" r="27.8855"/><circle cx="398.648" cy="85.648" r="13.9427"/></g><g clip-path="url(#P)"><path d="m540.636 28.4546h-28.454v28.4545h28.454z"/><circle cx="512.466" cy="28.7391" r="27.8855"/><circle cx="512.466" cy="28.7391" r="13.9427"/></g><g clip-path="url(#Q)"><path d="m512.182 0h-28.455v28.4545h28.455z"/><circle cx="484.012" cy=".284504" r="27.8855"/><circle cx="484.012" cy=".284525" r="13.9427"/></g><g clip-path="url(#R)"><path d="m113.818 85.3635h-28.4545v28.4545h28.4545z"/><circle cx="113.533" cy="113.533" r="27.8855"/><circle cx="113.534" cy="113.534" r="13.9427"/></g><g clip-path="url(#S)"><path d="m313 227.636h-28.455v28.455h28.455z"/><circle cx="312.715" cy="255.806" r="27.8855"/><circle cx="312.715" cy="255.807" r="13.9427"/></g><g clip-path="url(#T)"><path d="m256.091 170.727h-28.455v28.455h28.455z"/><circle cx="255.806" cy="198.897" r="27.8855"/><circle cx="255.807" cy="198.897" r="13.9427"/></g><g clip-path="url(#U)"><path d="m284.545 85.3635h-28.454v28.4545h28.454z"/><circle cx="284.261" cy="113.533" r="27.8855"/><circle cx="284.261" cy="113.534" r="13.9427"/></g><g clip-path="url(#V)"><path d="m56.9091 56.9091h-28.4545v28.4545h28.4545z"/><circle cx="42.6817" cy="71.1363" r="13.9427"/></g><g clip-path="url(#W)"><path d="m170.727 28.4546h-28.454v28.4545h28.454z"/><circle cx="170.443" cy="56.6246" r="27.8855"/></g><g clip-path="url(#X)"><path d="m113.818 0h-28.4545v28.4545h28.4545z"/><circle cx="113.533" cy=".284501" r="27.8855" transform="matrix(0 1 -1 0 113.817501 -113.248499)"/><ellipse cx="85.648" cy="28.17" rx="27.8855" ry="27.8855" transform="matrix(0 1 -1 0 113.818 -57.478)"/></g><g clip-path="url(#Y)"><path d="m142.273 85.3635h-28.455v28.4545h28.455z"/><ellipse cx="128.045" cy="113.818" rx="13.9427" ry="13.9427"/></g><g clip-path="url(#Z)"><path d="m313 199.182h-28.455v28.454h28.455z"/><ellipse cx="298.773" cy="227.636" rx="13.9427" ry="13.9427"/></g><g clip-path="url(#aa)"><path d="m512.182 199.182h-28.455v28.454h28.455z"/><ellipse cx="497.954" cy="227.636" rx="13.9427" ry="13.9427"/></g><g clip-path="url(#ab)"><path d="m483.727 256.091h-28.454v28.454h28.454z"/><ellipse cx="469.5" cy="284.545" rx="13.9427" ry="13.9427"/></g><g clip-path="url(#ac)"><path d="m569.091 170.727h-28.455v28.455h28.455z"/><ellipse cx="554.863" cy="199.182" rx="13.9427" ry="13.9427"/></g><g clip-path="url(#ad)"><path d="m455.273 284.545h-28.455v28.455h28.455z"/><ellipse cx="441.045" cy="313" rx="13.9427" ry="13.9427"/></g><g clip-path="url(#ae)"><path d="m142.273 113.818h-28.455v28.455h28.455z"/><circle cx="141.988" cy="114.103" r="27.8855" transform="matrix(0 1 -1 0 256.091 -27.885)"/><ellipse cx="114.103" cy="141.988" rx="27.8855" ry="27.8855" transform="matrix(0 1 -1 0 256.091 27.885)"/></g><g clip-path="url(#af)"><path d="m341.455 85.3635h-28.455v28.4545h28.455z"/><circle cx="341.17" cy="85.648" r="27.8855" transform="matrix(0 1 -1 0 426.818 -255.522)"/><ellipse cx="313.284" cy="113.534" rx="27.8855" ry="27.8855" transform="matrix(0 1 -1 0 426.818 -199.75)"/></g><g clip-path="url(#ag)"><path d="m455.273 0h-28.455v28.4545h28.455z"/><circle cx="454.988" cy=".284501" r="27.8855" transform="matrix(0 1 -1 0 455.272501 -454.703499)"/><ellipse cx="427.103" cy="28.17" rx="27.8855" ry="27.8855" transform="matrix(0 1 -1 0 455.273 -398.933)"/></g><g clip-path="url(#ah)"><path d="m369.909 28.4546h-28.454v28.4545h28.454z"/><circle cx="369.625" cy="28.7391" r="27.8855" transform="matrix(0 1 -1 0 398.3641 -340.8859)"/><ellipse cx="341.739" cy="56.6246" rx="27.8855" ry="27.8855" transform="matrix(0 1 -1 0 398.3636 -285.1144)"/></g><g clip-path="url(#ai)"><path d="m426.818 56.9091h-28.454v28.4545h28.454z"/><circle cx="426.534" cy="57.1936" r="27.8855" transform="matrix(0 1 -1 0 483.7276 -369.3404)"/><ellipse cx="398.648" cy="85.0791" rx="27.8855" ry="27.8855" transform="matrix(0 1 -1 0 483.7271 -313.5689)"/></g><g clip-path="url(#aj)"><path d="m512.182 28.4546h-28.455v28.4545h28.455z"/><circle cx="511.897" cy="28.7391" r="27.8855" transform="matrix(0 1 -1 0 540.6361 -483.1579)"/><ellipse cx="484.012" cy="56.6246" rx="27.8855" ry="27.8855" transform="matrix(0 1 -1 0 540.6366 -427.3874)"/></g><g clip-path="url(#ak)"><path d="m483.727 85.3635h-28.454v28.4545h28.454z"/><circle cx="483.443" cy="85.648" r="27.8855" transform="matrix(0 1 -1 0 569.091 -397.795)"/><ellipse cx="455.557" cy="113.534" rx="27.8855" ry="27.8855" transform="matrix(0 1 -1 0 569.091 -342.023)"/></g><g clip-path="url(#al)"><path d="m540.636 85.3635h-28.454v28.4545h28.454z"/><circle cx="540.352" cy="85.648" r="27.8855" transform="matrix(0 1 -1 0 626 -454.704)"/><ellipse cx="512.466" cy="113.534" rx="27.8855" ry="27.8855" transform="matrix(0 1 -1 0 626 -398.932)"/></g><g clip-path="url(#am)"><path d="m227.636 199.182h-28.454v28.454h28.454z"/><circle cx="227.352" cy="199.467" r="27.8855" transform="matrix(0 1 -1 0 426.819 -27.885)"/><ellipse cx="199.466" cy="227.352" rx="27.8855" ry="27.8855" transform="matrix(0 1 -1 0 426.818 27.886)"/></g><g clip-path="url(#an)"><path d="m284.545 113.818h-28.454v28.455h28.454z"/><circle cx="284.261" cy="114.103" r="27.8855" transform="matrix(0 1 -1 0 398.364 -170.158)"/><ellipse cx="256.375" cy="141.988" rx="27.8855" ry="27.8855" transform="matrix(0 1 -1 0 398.363 -114.387)"/></g><g clip-path="url(#ao)"><path d="m227.636 142.273h-28.454v28.454h28.454z"/><circle cx="227.352" cy="142.557" r="27.8855" transform="matrix(0 1 -1 0 369.909 -84.795)"/><ellipse cx="199.466" cy="170.443" rx="27.8855" ry="27.8855" transform="matrix(0 1 -1 0 369.909 -29.023)"/></g><g clip-path="url(#ap)"><path d="m483.727 170.727h-28.454v28.455h28.454z"/><circle cx="483.443" cy="171.012" r="27.8855" transform="matrix(0 1 -1 0 654.455 -312.431)"/><ellipse cx="455.557" cy="198.897" rx="27.8855" ry="27.8855" transform="matrix(0 1 -1 0 654.454 -256.66)"/></g><g clip-path="url(#aq)"><path d="m170.727 170.727h-28.454v28.455h28.454z"/><circle cx="170.443" cy="171.012" r="27.8855" transform="matrix(0 1 -1 0 341.455 .569)"/><ellipse cx="142.557" cy="198.897" rx="27.8855" ry="27.8855" transform="matrix(0 1 -1 0 341.454 56.34)"/></g><g clip-path="url(#ar)"><path d="m113.818 256.091h-28.4545v28.454h28.4545z"/><circle cx="113.533" cy="256.375" r="27.8855" transform="matrix(0 1 -1 0 369.908 142.842)"/><ellipse cx="85.648" cy="284.261" rx="27.8855" ry="27.8855" transform="matrix(0 1 -1 0 369.909 198.613)"/></g><g clip-path="url(#as)"><path d="m341.455 199.182h-28.455v28.454h28.455z"/><circle cx="341.17" cy="199.467" r="27.8855" transform="matrix(0 1 -1 0 540.637 -141.703)"/><ellipse cx="313.284" cy="227.352" rx="27.8855" ry="27.8855" transform="matrix(0 1 -1 0 540.636 -85.932)"/></g><g clip-path="url(#at)"><path d="m512.182 227.636h-28.455v28.455h28.455z"/><circle cx="511.897" cy="227.921" r="27.8855" transform="matrix(0 1 -1 0 739.818 -283.976)"/><ellipse cx="484.012" cy="255.807" rx="27.8855" ry="27.8855" transform="matrix(0 1 -1 0 739.819 -228.205)"/></g><g clip-path="url(#au)"><path d="m569.091 284.545h-28.455v28.455h28.455z"/><circle cx="568.806" cy="284.83" r="27.8855" transform="matrix(0 1 -1 0 853.636 -283.976)"/><ellipse cx="540.921" cy="312.716" rx="27.8855" ry="27.8855" transform="matrix(0 1 -1 0 853.637 -228.205)"/></g><g clip-path="url(#av)"><path d="m199.182 0h-28.455v28.4545h28.455z"/><circle cx="198.897" cy=".284501" r="27.8855" transform="matrix(0 1 -1 0 199.181501 -198.612499)"/><ellipse cx="171.012" cy="28.17" rx="27.8855" ry="27.8855" transform="matrix(0 1 -1 0 199.182 -142.842)"/></g><g clip-path="url(#aw)"><path d="m85.3637 56.9091h-28.4545v28.4545h28.4545z"/><ellipse cx="85.3636" cy="71.1363" rx="13.9427" ry="13.9427"/></g><g clip-path="url(#ax)"><path d="m313 0h-28.455v28.4545h28.455z"/><ellipse cx="313" cy="14.2273" rx="13.9427" ry="13.9427"/></g><g clip-path="url(#ay)"><path d="m170.727 113.818h-28.454v28.455h28.454z"/><ellipse cx="170.727" cy="128.045" rx="13.9427" ry="13.9427"/></g><g clip-path="url(#az)"><path d="m199.182 227.636h-28.455v28.455h28.455z"/><ellipse cx="199.182" cy="241.864" rx="13.9427" ry="13.9427"/></g><g clip-path="url(#aA)"><path d="m369.909 284.545h-28.454v28.455h28.454z"/><ellipse cx="369.909" cy="298.773" rx="13.9427" ry="13.9427"/></g><g clip-path="url(#aB)"><path d="m426.818 256.091h-28.454v28.454h28.454z"/><ellipse cx="426.818" cy="270.318" rx="13.9427" ry="13.9427"/></g><g clip-path="url(#aC)"><path d="m170.727 256.091h-28.454v28.454h28.454z"/><ellipse cx="170.727" cy="270.318" rx="13.9427" ry="13.9427"/></g><g clip-path="url(#aD)"><path d="m313 85.3635h-28.455v28.4545h28.455z"/><ellipse cx="313" cy="99.5907" rx="13.9427" ry="13.9427"/></g><g clip-path="url(#aE)"><path d="m85.3637 85.3635h-28.4545v28.4545h28.4545z"/><ellipse cx="71.1363" cy="113.818" rx="13.9427" ry="13.9427"/></g><g clip-path="url(#aF)"><path d="m28.4545 199.182h-28.4545v28.454h28.4545z"/><ellipse cx="14.2272" cy="227.636" rx="13.9427" ry="13.9427"/></g><g clip-path="url(#aG)"><path d="m142.273 284.545h-28.455v28.455h28.455z"/><ellipse cx="128.045" cy="313" rx="13.9427" ry="13.9427"/></g><g clip-path="url(#aH)"><path d="m170.727 227.636h-28.454v28.455h28.454z"/><ellipse cx="156.5" cy="256.091" rx="13.9427" ry="13.9427"/></g><g clip-path="url(#aI)"><path d="m170.727 0h-28.454v28.4545h28.454z"/><ellipse cx="156.5" cy="28.4546" rx="13.9427" ry="13.9427"/></g><g clip-path="url(#aJ)"><path d="m85.3637 113.818h-28.4545v28.455h28.4545z"/><circle cx="56.9093" cy="128.045" r="13.9427"/></g><g clip-path="url(#aK)"><path d="m199.182 170.727h-28.455v28.455h28.455z"/><circle cx="170.727" cy="184.954" r="13.9427"/></g><g clip-path="url(#aL)"><path d="m170.727 199.182h-28.454v28.454h28.454z"/><circle cx="142.273" cy="213.409" r="13.9427"/></g><g clip-path="url(#aM)"><path d="m284.545 256.091h-28.454v28.454h28.454z"/><circle cx="256.091" cy="270.318" r="13.9427"/></g><g clip-path="url(#aN)"><path d="m56.9091 199.182h-28.4545v28.454h28.4545z"/><circle cx="28.4547" cy="213.409" r="13.9427"/></g><g clip-path="url(#aO)"><path d="m369.909 113.818h-28.454v28.455h28.454z"/><circle cx="341.455" cy="128.045" r="13.9427"/></g><g clip-path="url(#aP)"><path d="m426.818 170.727h-28.454v28.455h28.454z"/><circle cx="398.364" cy="184.954" r="13.9427"/></g><g clip-path="url(#aQ)"><path d="m569.091 199.182h-28.455v28.454h28.455z"/><circle cx="540.636" cy="213.409" r="13.9427"/></g><g clip-path="url(#aR)"><path d="m199.182 85.3635h-28.455v28.4545h28.455z"/><circle cx="170.727" cy="99.5907" r="13.9427"/></g><g clip-path="url(#aS)"><path d="m227.636 0h-28.454v28.4545h28.454z"/><circle cx="199.182" cy="14.2273" r="13.9427"/></g><g clip-path="url(#aT)"><path d="m256.091 28.4546h-28.455v28.4545h28.455z"/><circle cx="227.637" cy="42.6819" r="13.9427"/></g><g clip-path="url(#aU)"><path d="m455.273 28.4546h-28.455v28.4545h28.455z"/><circle cx="426.818" cy="42.6819" r="13.9427"/></g><g clip-path="url(#aV)"><path d="m483.727 56.9091h-28.454v28.4545h28.454z"/><circle cx="455.273" cy="71.1363" r="13.9427"/></g><g clip-path="url(#aW)"><path d="m483.727 0h-28.454v28.4545h28.454z"/><circle cx="455.273" cy="14.2273" r="13.9427"/></g><g clip-path="url(#aX)"><path d="m540.636 56.9091h-28.454v28.4545h28.454z"/><circle cx="512.182" cy="71.1363" r="13.9427"/></g><g clip-path="url(#aY)"><path d="m512.182 85.3635h-28.455v28.4545h28.455z"/><circle cx="483.727" cy="99.5907" r="13.9427"/></g><g clip-path="url(#aZ)"><path d="m284.545 28.4546h-28.454v28.4545h28.454z"/><circle cx="256.091" cy="42.6819" r="13.9427"/></g><g clip-path="url(#a0)"><path d="m284.545 142.273h-28.454v28.454h28.454z"/><circle cx="256.091" cy="156.5" r="13.9427"/></g><g clip-path="url(#a1)"><path d="m227.636 28.4546h-28.454v28.4545h28.454z"/><ellipse cx="227.636" cy="42.6819" rx="13.9427" ry="13.9427"/></g><g clip-path="url(#a2)"><path d="m341.455 28.4546h-28.455v28.4545h28.455z"/><ellipse cx="341.454" cy="42.6819" rx="13.9427" ry="13.9427"/></g><g clip-path="url(#a3)"><path d="m398.364 28.4546h-28.455v28.4545h28.455z"/><ellipse cx="398.364" cy="42.6819" rx="13.9427" ry="13.9427"/></g><g clip-path="url(#a4)"><path d="m369.909 56.9091h-28.454v28.4545h28.454z"/><ellipse cx="369.909" cy="71.1363" rx="13.9427" ry="13.9427"/></g><g clip-path="url(#a5)"><path d="m284.545 0h-28.454v28.4545h28.454z"/><ellipse cx="284.545" cy="14.2273" rx="13.9427" ry="13.9427"/></g><g clip-path="url(#a6)"><path d="m142.273 0h-28.455v28.4545h28.455z"/><ellipse cx="142.273" cy="14.2273" rx="13.9427" ry="13.9427"/></g><g clip-path="url(#a7)"><path d="m227.636 113.818h-28.454v28.455h28.454z"/><circle cx="213.409" cy="113.818" r="13.9427"/></g><g clip-path="url(#a8)"><path d="m56.9091 85.3635h-28.4545v28.4545h28.4545z"/><circle cx="42.6817" cy="85.3636" r="13.9427"/></g></g><g clip-path="url(#a9)"><path d="m227.636 85.3635h-28.454v28.4545h28.454z" stroke="#3770ee" stroke-width="2"/></g><g clip-path="url(#ba)"><path d="m398.364 85.3635h-28.455v28.4545h28.455z" stroke="#3770ee" stroke-width="2"/></g><g clip-path="url(#bb)"><path d="m199.182 28.4546h-28.455v28.4545h28.455z" stroke="#3770ee" stroke-width="2"/></g><g clip-path="url(#bc)"><path d="m256.091 113.818h-28.455v28.455h28.455z" stroke="#3770ee" stroke-width="2"/></g><g clip-path="url(#bd)" stroke="#3770ee" stroke-width="2"><path d="m199.182 113.818h-28.455v28.455h28.455z"/><circle cx="171.012" cy="114.103" r="27.8855"/><circle cx="198.897" cy="141.988" r="27.8855"/></g><g clip-path="url(#be)" stroke="#3770ee" stroke-width="2"><path d="m142.273 199.182h-28.455v28.454h28.455z"/><circle cx="114.103" cy="199.467" r="27.8855"/><circle cx="141.988" cy="227.352" r="27.8855"/></g><g clip-path="url(#bf)" stroke="#3770ee" stroke-width="2"><path d="m170.727 284.545h-28.454v28.455h28.454z"/><circle cx="142.557" cy="284.83" r="27.8855"/><circle cx="170.443" cy="312.715" r="27.8855"/></g><g clip-path="url(#bg)" stroke="#3770ee" stroke-width="2"><path d="m113.818 170.727h-28.4545v28.455h28.4545z"/><circle cx="85.6481" cy="171.012" r="27.8855"/><circle cx="113.533" cy="198.897" r="27.8855"/></g><g clip-path="url(#bh)" stroke="#3770ee" stroke-width="2"><path d="m85.3637 142.273h-28.4545v28.454h28.4545z"/><circle cx="57.1938" cy="142.557" r="27.8855"/><circle cx="85.0791" cy="170.443" r="27.8855"/></g><g clip-path="url(#bi)" stroke="#3770ee" stroke-width="2"><path d="m56.9091 227.636h-28.4545v28.455h28.4545z"/><circle cx="28.7392" cy="227.921" r="27.8855"/><circle cx="56.6245" cy="255.806" r="27.8855"/></g><g clip-path="url(#bj)" stroke="#3770ee" stroke-width="2"><path d="m341.455 142.273h-28.455v28.454h28.455z"/><circle cx="313.285" cy="142.557" r="27.8855"/><circle cx="341.17" cy="170.443" r="27.8855"/></g><g clip-path="url(#bk)" stroke="#3770ee" stroke-width="2"><path d="m398.364 170.727h-28.455v28.455h28.455z"/><circle cx="370.194" cy="171.012" r="27.8855"/><circle cx="398.079" cy="198.897" r="27.8855"/></g><g clip-path="url(#bl)" stroke="#3770ee" stroke-width="2"><path d="m455.273 199.182h-28.455v28.454h28.455z"/><circle cx="427.103" cy="199.467" r="27.8855"/><circle cx="454.988" cy="227.352" r="27.8855"/></g><g clip-path="url(#bm)" stroke="#3770ee" stroke-width="2"><path d="m540.636 199.182h-28.454v28.454h28.454z"/><circle cx="512.466" cy="199.467" r="27.8855"/><circle cx="540.352" cy="227.352" r="27.8855"/></g><g clip-path="url(#bn)" stroke="#3770ee" stroke-width="2"><path d="m113.818 113.818h-28.4545v28.455h28.4545z"/><ellipse cx="85.6481" cy="141.988" rx="27.8855" ry="27.8855"/></g><g clip-path="url(#bo)" stroke="#3770ee" stroke-width="2"><path d="m341.455 113.818h-28.455v28.455h28.455z"/><ellipse cx="313.285" cy="141.988" rx="27.8855" ry="27.8855"/></g><g clip-path="url(#bp)" stroke="#3770ee" stroke-width="2"><path d="m341.455 0h-28.455v28.4545h28.455z"/><ellipse cx="313.285" cy="28.17" rx="27.8855" ry="27.8855"/></g><g clip-path="url(#bq)" stroke="#3770ee" stroke-width="2"><path d="m227.636 56.9091h-28.454v28.4545h28.454z"/><circle cx="199.467" cy="57.1936" r="27.8855"/><circle cx="199.466" cy="57.1936" r="13.9427"/></g><g clip-path="url(#br)" stroke="#3770ee" stroke-width="2"><path d="m369.909 142.273h-28.454v28.454h28.454z"/><circle cx="341.739" cy="142.557" r="27.8855"/><circle cx="341.739" cy="142.557" r="13.9427"/></g><g clip-path="url(#bs)" stroke="#3770ee" stroke-width="2"><path d="m540.636 170.727h-28.454v28.455h28.454z"/><circle cx="512.466" cy="171.012" r="27.8855"/><circle cx="512.466" cy="171.012" r="13.9427"/></g><g clip-path="url(#bt)" stroke="#3770ee" stroke-width="2"><path d="m28.4545 56.9091h-28.4545v28.4545h28.4545z"/><circle cx="28.1699" cy="85.0791" r="27.8855"/><circle cx="28.17" cy="85.079" r="13.9427"/></g><g clip-path="url(#bu)" stroke="#3770ee" stroke-width="2"><path d="m113.818 142.273h-28.4545v28.454h28.4545z"/><circle cx="85.6481" cy="142.557" r="27.8855"/><circle cx="85.648" cy="142.557" r="13.9427"/></g><g clip-path="url(#bv)" stroke="#3770ee" stroke-width="2"><path d="m113.818 227.636h-28.4545v28.455h28.4545z"/><circle cx="85.6481" cy="227.921" r="27.8855"/><circle cx="85.648" cy="227.921" r="13.9427"/></g><g clip-path="url(#bw)" stroke="#3770ee" stroke-width="2"><path d="m56.9091 113.818h-28.4545v28.455h28.4545z"/><circle cx="28.7392" cy="114.103" r="27.8855"/></g><g clip-path="url(#bx)" stroke="#3770ee" stroke-width="2"><path d="m142.273 142.273h-28.455v28.454h28.455z"/><ellipse cx="141.988" cy="142.557" rx="27.8855" ry="27.8855"/></g><g clip-path="url(#by)" stroke="#3770ee" stroke-width="2"><path d="m256.091 0h-28.455v28.4545h28.455z"/><ellipse cx="227.921" cy="28.17" rx="27.8855" ry="27.8855"/><circle cx="227.921" cy="28.17" r="13.9427"/></g><g clip-path="url(#bz)" stroke="#3770ee" stroke-width="2"><path d="m170.727 142.273h-28.454v28.454h28.454z"/><circle cx="142.557" cy="142.557" r="27.8855"/><circle cx="142.557" cy="142.557" r="13.9427"/></g><g clip-path="url(#bA)" stroke="#3770ee" stroke-width="2"><path d="m341.455 56.9091h-28.455v28.4545h28.455z"/><circle cx="313.285" cy="57.1936" r="27.8855"/><circle cx="313.285" cy="57.1936" r="13.9427"/></g><g clip-path="url(#bB)" stroke="#3770ee" stroke-width="2"><path d="m426.818 0h-28.454v28.4545h28.454z"/><circle cx="398.648" cy=".284504" r="27.8855"/><circle cx="398.648" cy=".284525" r="13.9427"/></g><g clip-path="url(#bC)" stroke="#3770ee" stroke-width="2"><path d="m398.364 56.9091h-28.455v28.4545h28.455z"/><circle cx="370.194" cy="57.1936" r="27.8855"/><circle cx="370.194" cy="57.1936" r="13.9427"/></g><g clip-path="url(#bD)" stroke="#3770ee" stroke-width="2"><path d="m56.9091 142.273h-28.4545v28.454h28.4545z"/><circle cx="28.7392" cy="142.557" r="27.8855"/><circle cx="28.7391" cy="142.557" r="13.9427"/></g><g clip-path="url(#bE)" stroke="#3770ee" stroke-width="2"><path d="m256.091 227.636h-28.455v28.455h28.455z"/><circle cx="227.921" cy="227.921" r="27.8855"/><circle cx="227.921" cy="227.921" r="13.9427"/></g><g clip-path="url(#bF)" stroke="#3770ee" stroke-width="2"><path d="m199.182 256.091h-28.455v28.454h28.455z"/><circle cx="171.012" cy="256.375" r="27.8855"/><circle cx="171.012" cy="256.375" r="13.9427"/></g><g clip-path="url(#bG)" stroke="#3770ee" stroke-width="2"><path d="m85.3637 199.182h-28.4545v28.454h28.4545z"/><circle cx="57.1938" cy="199.467" r="27.8855"/><circle cx="57.1937" cy="199.466" r="13.9427"/></g><g clip-path="url(#bH)" stroke="#3770ee" stroke-width="2"><path d="m369.909 199.182h-28.454v28.454h28.454z"/><circle cx="341.739" cy="199.467" r="27.8855"/><circle cx="341.739" cy="199.466" r="13.9427"/></g><g clip-path="url(#bI)" stroke="#3770ee" stroke-width="2"><path d="m256.091 256.091h-28.455v28.454h28.455z"/><circle cx="227.921" cy="256.375" r="27.8855"/><circle cx="227.921" cy="256.375" r="13.9427"/></g><g clip-path="url(#bJ)" stroke="#3770ee" stroke-width="2"><path d="m56.9091 170.727h-28.4545v28.455h28.4545z"/><ellipse cx="56.6245" cy="171.012" rx="27.8855" ry="27.8855"/></g><g clip-path="url(#bK)" stroke="#3770ee" stroke-width="2"><path d="m85.3637 227.636h-28.4545v28.455h28.4545z"/><ellipse cx="85.0791" cy="227.921" rx="27.8855" ry="27.8855"/></g><g clip-path="url(#bL)" stroke="#3770ee" stroke-width="2"><path d="m227.636 170.727h-28.454v28.455h28.454z"/><ellipse cx="227.352" cy="171.012" rx="27.8855" ry="27.8855"/></g><g clip-path="url(#bM)" stroke="#3770ee" stroke-width="2"><path d="m483.727 199.182h-28.454v28.454h28.454z"/><ellipse cx="483.443" cy="199.467" rx="27.8855" ry="27.8855"/></g><g clip-path="url(#bN)" stroke="#3770ee" stroke-width="2"><path d="m455.273 256.091h-28.455v28.454h28.455z"/><ellipse cx="454.988" cy="256.375" rx="27.8855" ry="27.8855"/></g><g clip-path="url(#bO)" stroke="#3770ee" stroke-width="2"><path d="m512.182 142.273h-28.455v28.454h28.455z"/><ellipse cx="511.897" cy="142.557" rx="27.8855" ry="27.8855"/></g><g clip-path="url(#bP)" stroke="#3770ee" stroke-width="2"><path d="m398.364 227.636h-28.455v28.455h28.455z"/><ellipse cx="398.079" cy="227.921" rx="27.8855" ry="27.8855"/></g><g clip-path="url(#bQ)" stroke="#3770ee" stroke-width="2"><path d="m483.727 284.545h-28.454v28.455h28.454z"/><ellipse cx="483.443" cy="284.83" rx="27.8855" ry="27.8855"/></g><g clip-path="url(#bR)" stroke="#3770ee" stroke-width="2"><path d="m512.182 256.091h-28.455v28.454h28.455z"/><ellipse cx="511.897" cy="256.375" rx="27.8855" ry="27.8855"/></g><g clip-path="url(#bS)" stroke="#3770ee" stroke-width="2"><path d="m28.4545 113.818h-28.4545v28.455h28.4545z"/><circle cx="28.1699" cy="141.988" r="27.8855"/></g><g clip-path="url(#bT)" stroke="#3770ee" stroke-width="2"><path d="m28.4545 142.273h-28.4545v28.454h28.4545z"/><ellipse cx="28.1699" cy="142.557" rx="27.8855" ry="27.8855"/></g><g clip-path="url(#bU)" stroke="#3770ee" stroke-width="2"><path d="m28.4545 85.3635h-28.4545v28.4545h28.4545z"/><circle cx="14.2272" cy="99.5907" r="13.9427"/></g><g clip-path="url(#bV)" stroke="#3770ee" stroke-width="2"><path d="m85.3637 170.727h-28.4545v28.455h28.4545z"/><circle cx="85.0791" cy="198.897" r="27.8855"/></g><g clip-path="url(#bW)" stroke="#3770ee" stroke-width="2"><path d="m313 142.273h-28.455v28.454h28.455z"/><circle cx="312.715" cy="170.443" r="27.8855"/></g><g clip-path="url(#bX)" stroke="#3770ee" stroke-width="2"><path d="m398.364 284.545h-28.455v28.455h28.455z"/><circle cx="398.079" cy="312.715" r="27.8855"/></g><g clip-path="url(#bY)" stroke="#3770ee" stroke-width="2"><path d="m398.364 142.273h-28.455v28.454h28.455z"/><circle cx="398.079" cy="170.443" r="27.8855"/></g><g clip-path="url(#bZ)" stroke="#3770ee" stroke-width="2"><path d="m199.182 142.273h-28.455v28.454h28.455z"/><circle cx="198.897" cy="170.443" r="27.8855"/></g><g clip-path="url(#b0)" stroke="#3770ee" stroke-width="2"><path d="m284.545 199.182h-28.454v28.454h28.454z"/><circle cx="284.261" cy="227.352" r="27.8855"/></g><g clip-path="url(#b1)" stroke="#3770ee" stroke-width="2"><path d="m142.273 170.727h-28.455v28.455h28.455z"/><circle cx="141.988" cy="198.897" r="27.8855"/></g><g clip-path="url(#b2)" stroke="#3770ee" stroke-width="2"><path d="m142.273 227.636h-28.455v28.455h28.455z"/><circle cx="141.988" cy="255.806" r="27.8855"/></g><g clip-path="url(#b3)" stroke="#3770ee" stroke-width="2"><path d="m426.818 199.182h-28.454v28.454h28.454z"/><circle cx="426.534" cy="227.352" r="27.8855"/></g><g clip-path="url(#b4)" stroke="#3770ee" stroke-width="2"><path d="m540.636 256.091h-28.454v28.454h28.454z"/><circle cx="540.352" cy="284.261" r="27.8855"/></g><g clip-path="url(#b5)" stroke="#3770ee" stroke-width="2"><path d="m199.182 199.182h-28.455v28.454h28.455z"/><circle cx="198.897" cy="227.352" r="27.8855"/></g><g clip-path="url(#b6)" stroke="#3770ee" stroke-width="2"><path d="m28.4545 170.727h-28.4545v28.455h28.4545z"/><circle cx="14.2272" cy="184.954" r="13.9427"/></g><g clip-path="url(#b7)" stroke="#3770ee" stroke-width="2"><path d="m369.909 170.727h-28.454v28.455h28.454z"/><circle cx="355.682" cy="184.954" r="13.9427"/></g><g clip-path="url(#b8)" stroke="#3770ee" stroke-width="2"><path d="m512.182 284.545h-28.455v28.455h28.455z"/><circle cx="497.954" cy="298.773" r="13.9427"/></g><g clip-path="url(#b9)" stroke="#3770ee" stroke-width="2"><path d="m341.455 227.636h-28.455v28.455h28.455z"/><circle cx="327.227" cy="241.864" r="13.9427"/></g><g clip-path="url(#ca)" stroke="#3770ee" stroke-width="2"><path d="m227.636 227.636h-28.454v28.455h28.454z"/><circle cx="213.409" cy="241.864" r="13.9427"/></g><g clip-path="url(#cb)" stroke="#3770ee" stroke-width="2"><path d="m398.364 256.091h-28.455v28.454h28.455z"/><circle cx="384.136" cy="270.318" r="13.9427"/></g><g clip-path="url(#cc)" stroke="#3770ee" stroke-width="2"><path d="m569.091 256.091h-28.455v28.454h28.455z"/><circle cx="554.863" cy="270.318" r="13.9427"/></g><g clip-path="url(#cd)" stroke="#3770ee" stroke-width="2"><path d="m426.818 284.545h-28.454v28.455h28.454z"/><circle cx="412.591" cy="298.773" r="13.9427"/></g><g clip-path="url(#ce)" stroke="#3770ee" stroke-width="2"><path d="m256.091 284.545h-28.455v28.455h28.455z"/><circle cx="241.864" cy="298.773" r="13.9427"/></g><g clip-path="url(#cf)" stroke="#3770ee" stroke-width="2"><path d="m455.273 227.636h-28.455v28.455h28.455z"/><circle cx="441.045" cy="241.864" r="13.9427"/></g><g clip-path="url(#cg)" stroke="#3770ee" stroke-width="2"><path d="m512.182 170.727h-28.455v28.455h28.455z"/><circle cx="497.954" cy="184.954" r="13.9427"/></g><g clip-path="url(#ch)" stroke="#3770ee" stroke-width="2"><path d="m540.636 227.636h-28.454v28.455h28.454z"/><circle cx="526.409" cy="241.864" r="13.9427"/></g><g clip-path="url(#ci)" stroke="#3770ee" stroke-width="2"><path d="m512.182 56.9091h-28.455v28.4545h28.455z"/><circle cx="497.954" cy="71.1363" r="13.9427"/></g><g clip-path="url(#cj)" stroke="#3770ee" stroke-width="2"><path d="m483.727 28.4546h-28.454v28.4545h28.454z"/><circle cx="469.5" cy="42.6819" r="13.9427"/></g><g clip-path="url(#ck)" stroke="#3770ee" stroke-width="2"><path d="m455.273 85.3635h-28.455v28.4545h28.455z"/><circle cx="441.045" cy="99.5907" r="13.9427"/></g><g clip-path="url(#cl)" stroke="#3770ee" stroke-width="2"><path d="m569.091 0h-28.455v28.4545h28.455z"/><circle cx="554.863" cy="14.2273" r="13.9427"/></g><g clip-path="url(#cm)" stroke="#3770ee" stroke-width="2"><path d="m426.818 28.4546h-28.454v28.4545h28.454z"/><circle cx="412.591" cy="42.6819" r="13.9427"/></g><g clip-path="url(#cn)" stroke="#3770ee" stroke-width="2"><path d="m113.818 199.182h-28.4545v28.454h28.4545z"/><circle cx="99.5907" cy="213.409" r="13.9427"/></g><g clip-path="url(#co)" stroke="#3770ee" stroke-width="2"><path d="m341.455 170.727h-28.455v28.455h28.455z"/><ellipse cx="313.285" cy="198.897" rx="27.8855" ry="27.8855"/></g><g clip-path="url(#cp)" stroke="#3770ee" stroke-width="2"><path d="m483.727 227.636h-28.454v28.455h28.454z"/><ellipse cx="455.557" cy="255.806" rx="27.8855" ry="27.8855"/></g><g clip-path="url(#cq)" stroke="#3770ee" stroke-width="2"><path d="m540.636 142.273h-28.454v28.454h28.454z"/><ellipse cx="512.466" cy="170.443" rx="27.8855" ry="27.8855"/></g><g clip-path="url(#cr)" stroke="#3770ee" stroke-width="2"><path d="m284.545 284.545h-28.454v28.455h28.454z"/><ellipse cx="256.375" cy="312.715" rx="27.8855" ry="27.8855"/></g><g clip-path="url(#cs)" stroke="#3770ee" stroke-width="2"><path d="m426.818 113.818h-28.454v28.455h28.454z"/><ellipse cx="398.648" cy="141.988" rx="27.8855" ry="27.8855"/></g><g clip-path="url(#ct)" stroke="#3770ee" stroke-width="2"><path d="m569.091 28.4546h-28.455v28.4545h28.455z"/><ellipse cx="540.921" cy="56.6246" rx="27.8855" ry="27.8855"/></g><g clip-path="url(#cu)" stroke="#3770ee" stroke-width="2"><path d="m483.727 113.818h-28.454v28.455h28.454z"/><ellipse cx="455.557" cy="141.988" rx="27.8855" ry="27.8855"/></g><g clip-path="url(#cv)" stroke="#3770ee" stroke-width="2"><path d="m455.273 56.9091h-28.455v28.4545h28.455z"/><ellipse cx="427.103" cy="85.0791" rx="27.8855" ry="27.8855"/></g><g clip-path="url(#cw)" stroke="#3770ee" stroke-width="2"><path d="m540.636 0h-28.454v28.4545h28.454z"/><ellipse cx="512.466" cy="28.17" rx="27.8855" ry="27.8855"/></g><g clip-path="url(#cx)" stroke="#3770ee" stroke-width="2"><path d="m455.273 170.727h-28.455v28.455h28.455z"/><ellipse cx="427.103" cy="198.897" rx="27.8855" ry="27.8855"/></g><g clip-path="url(#cy)" stroke="#3770ee" stroke-width="2"><path d="m540.636 113.818h-28.454v28.455h28.454z"/><ellipse cx="512.466" cy="141.988" rx="27.8855" ry="27.8855"/></g><g clip-path="url(#cz)" stroke="#3770ee" stroke-width="2"><path d="m369.909 85.3635h-28.454v28.4545h28.454z"/><ellipse cx="341.739" cy="113.533" rx="27.8855" ry="27.8855"/></g><g clip-path="url(#cA)" stroke="#3770ee" stroke-width="2"><path d="m398.364 0h-28.455v28.4545h28.455z"/><ellipse cx="370.194" cy="28.17" rx="27.8855" ry="27.8855"/></g><g clip-path="url(#cB)" stroke="#3770ee" stroke-width="2"><path d="m256.091 199.182h-28.455v28.454h28.455z"/><ellipse cx="227.921" cy="227.352" rx="27.8855" ry="27.8855"/></g><g clip-path="url(#cC)" stroke="#3770ee" stroke-width="2"><path d="m199.182 284.545h-28.455v28.455h28.455z"/><ellipse cx="171.012" cy="312.715" rx="27.8855" ry="27.8855"/></g><g clip-path="url(#cD)" stroke="#3770ee" stroke-width="2"><path d="m85.3637 256.091h-28.4545v28.454h28.4545z"/><circle cx="85.0791" cy="284.261" r="27.8855"/></g><g clip-path="url(#cE)" stroke="#3770ee" stroke-width="2"><path d="m56.9091 256.091h-28.4545v28.454h28.4545z"/><circle cx="56.6245" cy="284.261" r="27.8855"/></g><g clip-path="url(#cF)" stroke="#3770ee" stroke-width="2"><path d="m28.4545 227.636h-28.4545v28.455h28.4545z"/><ellipse cx="28.1699" cy="227.921" rx="27.8855" ry="27.8855"/><circle cx="28.17" cy="227.921" r="13.9427"/></g><g clip-path="url(#cG)" stroke="#3770ee" stroke-width="2"><path d="m28.4545 256.091h-28.4545v28.454h28.4545z"/><circle cx="14.2272" cy="270.318" r="13.9427"/></g><g clip-path="url(#cH)" stroke="#3770ee" stroke-width="2"><path d="m142.273 256.091h-28.455v28.454h28.455z"/><circle cx="128.045" cy="270.318" r="13.9427"/></g><g clip-path="url(#cI)" stroke="#3770ee" stroke-width="2"><path d="m455.273 142.273h-28.455v28.454h28.455z"/><circle cx="441.045" cy="156.5" r="13.9427"/></g><g clip-path="url(#cJ)" stroke="#3770ee" stroke-width="2"><path d="m569.091 85.3635h-28.455v28.4545h28.455z"/><circle cx="554.863" cy="99.5907" r="13.9427"/></g><g clip-path="url(#cK)" stroke="#3770ee" stroke-width="2"><path d="m369.909 227.636h-28.454v28.455h28.454z"/><ellipse cx="341.739" cy="255.806" rx="27.8855" ry="27.8855"/><circle cx="341.739" cy="255.807" r="13.9427"/></g><g clip-path="url(#cL)" stroke="#3770ee" stroke-width="2"><path d="m540.636 284.545h-28.454v28.455h28.454z"/><ellipse cx="512.466" cy="312.715" rx="27.8855" ry="27.8855"/><circle cx="512.466" cy="312.715" r="13.9427"/></g><g clip-path="url(#cM)" stroke="#3770ee" stroke-width="2"><path d="m341.455 256.091h-28.455v28.454h28.455z"/><ellipse cx="313.285" cy="284.261" rx="27.8855" ry="27.8855"/><circle cx="313.285" cy="284.261" r="13.9427"/></g><g clip-path="url(#cN)" stroke="#3770ee" stroke-width="2"><path d="m227.636 256.091h-28.454v28.454h28.454z"/><ellipse cx="199.467" cy="284.261" rx="27.8855" ry="27.8855"/><circle cx="199.466" cy="284.261" r="13.9427"/></g><g clip-path="url(#cO)" stroke="#3770ee" stroke-width="2"><path d="m113.818 284.545h-28.4545v28.455h28.4545z"/><ellipse cx="85.6481" cy="312.715" rx="27.8855" ry="27.8855"/><circle cx="85.648" cy="312.715" r="13.9427"/></g><g clip-path="url(#cP)" stroke="#3770ee" stroke-width="2"><path d="m85.3637 284.545h-28.4545v28.455h28.4545z"/><ellipse cx="57.1938" cy="312.715" rx="27.8855" ry="27.8855"/></g><g clip-path="url(#cQ)" stroke="#3770ee" stroke-width="2"><path d="m56.9091 284.545h-28.4545v28.455h28.4545z"/><circle cx="56.6245" cy="312.715" r="27.8855"/><circle cx="56.6246" cy="312.715" r="13.9427"/></g><g clip-path="url(#cR)" stroke="#3770ee" stroke-width="2"><path d="m28.4545 284.545h-28.4545v28.455h28.4545z"/><circle cx=".284626" cy="284.83" r="27.8855"/><circle cx=".284525" cy="284.83" r="13.9427"/></g><g clip-path="url(#cS)" stroke="#3770ee" stroke-width="2"><path d="m227.636 284.545h-28.454v28.455h28.454z"/><circle cx="227.352" cy="284.83" r="27.8855" transform="matrix(0 1 -1 0 512.182 57.478)"/><ellipse cx="199.466" cy="312.716" rx="27.8855" ry="27.8855" transform="matrix(0 1 -1 0 512.182 113.25)"/></g></g></g></svg>